<svg xmlns="http://www.w3.org/2000/svg" viewBox="0 0 100 100" fill="none" aria-hidden="true">
  <defs>
    <linearGradient id="female-skin" x1="0%" y1="0%" x2="100%" y2="100%">
      <stop offset="0%" stop-color="#e8c4a0"/>
      <stop offset="50%" stop-color="#d4a574"/>
      <stop offset="100%" stop-color="#c4956a"/>
    </linearGradient>
    <linearGradient id="female-hair" x1="0%" y1="0%" x2="0%" y2="100%">
      <stop offset="0%" stop-color="#4a3728"/>
      <stop offset="100%" stop-color="#2a1c0e"/>
    </linearGradient>
  </defs>
  <!-- Face (softer oval) -->
  <ellipse cx="50" cy="52" rx="26" ry="30" fill="url(#female-skin)"/>
  <!-- Long hair framing face -->
  <path d="M24 22 Q22 35 26 55 Q28 72 38 78 L62 78 Q72 72 74 55 Q78 35 76 22 Q74 12 50 8 Q26 12 24 22Z" fill="url(#female-hair)"/>
  <!-- Hair over shoulders -->
  <path d="M30 78 Q22 95 20 100 L36 100 Q38 85 38 78" fill="url(#female-hair)"/>
  <path d="M70 78 Q78 95 80 100 L64 100 Q62 85 62 78" fill="url(#female-hair)"/>
  <!-- Subtle eyes -->
  <ellipse cx="38" cy="48" rx="3" ry="2" fill="#5c4033"/>
  <ellipse cx="62" cy="48" rx="3" ry="2" fill="#5c4033"/>
</svg>
